<svg width="41" height="36" viewBox="0 0 41 36" fill="none" xmlns="http://www.w3.org/2000/svg">
<g clip-path="url(#clip0_120_122)">
<path d="M5.7243 7.82671C5.04852 7.82671 4.49562 8.32985 4.49562 8.9448V10.4892L17.7423 20.3843C19.3319 21.5723 21.6127 21.5723 23.2023 20.3843L36.4413 10.4892V8.9448C36.4413 8.32985 35.8884 7.82671 35.2127 7.82671H5.7243ZM4.49562 14.8288V26.8344C4.49562 27.4493 5.04852 27.9525 5.7243 27.9525H35.2127C35.8884 27.9525 36.4413 27.4493 36.4413 26.8344V14.8288L25.5368 22.9769C22.588 25.1782 18.3413 25.1782 15.4002 22.9769L4.49562 14.8288ZM0.80957 8.9448C0.80957 6.478 3.01352 4.47241 5.7243 4.47241H35.2127C37.9234 4.47241 40.1274 6.478 40.1274 8.9448V26.8344C40.1274 29.3012 37.9234 31.3068 35.2127 31.3068H5.7243C3.01352 31.3068 0.80957 29.3012 0.80957 26.8344V8.9448Z" fill="#3A2818"/>
</g>
<defs>
<clipPath id="clip0_120_122">
<rect width="39.3178" height="35.7791" fill="white" transform="translate(0.80957)"/>
</clipPath>
</defs>
</svg>
