<svg width="90" height="74" viewBox="0 0 90 74" fill="none" xmlns="http://www.w3.org/2000/svg">
<path d="M0.549805 0H51.6455C72.3562 0 89.1456 16.7893 89.1456 37.5V73.8778H38.0498C17.3392 73.8778 0.549805 57.0885 0.549805 36.3778V0Z" fill="#FF9900"/>
<g clip-path="url(#clip0_120_47)">
<path d="M49.685 26.449C48.6405 26.4587 47.6129 26.705 46.6845 27.1681C45.7561 27.6311 44.9527 28.2981 44.3387 29.1155C43.7247 28.2981 42.9214 27.6311 41.993 27.1681C41.0646 26.705 40.0369 26.4587 38.9924 26.449C37.1001 26.5221 35.3147 27.317 34.0266 28.6599C32.7385 30.0027 32.0525 31.7844 32.1186 33.6151C32.1186 38.099 36.8784 42.8991 40.8764 46.1369C41.8472 46.9265 43.0749 47.3595 44.3433 47.3595C45.6117 47.3595 46.8394 46.9265 47.8103 46.1369C51.8042 42.8991 56.568 38.099 56.568 33.6151C56.6341 31.7829 55.9468 30 54.6568 28.6568C53.3667 27.3137 51.579 26.5198 49.685 26.449ZM45.8428 43.8723C45.4217 44.2153 44.8888 44.4034 44.3382 44.4034C43.7877 44.4034 43.2548 44.2153 42.8336 43.8723C37.966 39.9243 35.1737 36.1861 35.1737 33.6151C35.1087 32.5682 35.4733 31.5388 36.1883 30.7504C36.9033 29.962 37.9109 29.4782 38.9924 29.4041C40.074 29.4782 41.0816 29.962 41.7966 30.7504C42.5115 31.5388 42.8761 32.5682 42.8112 33.6151C42.8112 34.007 42.9722 34.3828 43.2586 34.6599C43.5451 34.937 43.9336 35.0927 44.3387 35.0927C44.7439 35.0927 45.1324 34.937 45.4188 34.6599C45.7053 34.3828 45.8662 34.007 45.8662 33.6151C45.8013 32.5682 46.1659 31.5388 46.8809 30.7504C47.5959 29.962 48.6035 29.4782 49.685 29.4041C50.7665 29.4782 51.7742 29.962 52.4892 30.7504C53.2041 31.5388 53.5687 32.5682 53.5038 33.6151C53.5038 36.1861 50.7115 39.9243 45.8428 43.8723Z" fill="white"/>
</g>
<defs>
<clipPath id="clip0_120_47">
<rect width="24.4402" height="23.6409" fill="white" transform="translate(32.1191 24.626)"/>
</clipPath>
</defs>
</svg>
