<svg width="28" height="26" viewBox="0 0 28 26" fill="none" xmlns="http://www.w3.org/2000/svg">
<path d="M1.30038 17.3581C0.318066 17.7432 -0.204778 18.7583 0.0751283 19.7284L1.34263 24.1288C1.59613 24.9989 2.43056 25.604 3.38119 25.604C16.447 25.604 27.0412 15.5729 27.0412 3.20165C27.0412 2.30155 26.4021 1.51147 25.4832 1.27144L20.8357 0.0713196C19.8112 -0.193708 18.7391 0.301342 18.3324 1.23144L16.2199 6.03195C15.8608 6.84703 16.109 7.79213 16.8325 8.34719L19.4362 10.3674C17.6775 13.8878 14.6672 16.7381 10.9492 18.4032L8.82087 15.938C8.22937 15.2529 7.2365 15.0179 6.37566 15.3579L1.30566 17.3581H1.30038Z" fill="#3A2818"/>
</svg>
